<svg width="837" height="226" viewBox="0 0 837 226" fill="none" xmlns="http://www.w3.org/2000/svg">
<path d="M641.43 17.0668C635.608 20.6628 632.921 20.6182 631.653 16.0456C630.384 11.6061 626.951 11.8281 623.667 13.2487C620.009 14.8025 614.71 14.3586 612.546 16.3119C609.709 18.8868 608.664 21.3287 604.634 17.644C602.693 20.6184 596.051 17.1555 594.782 22.2609C594.035 25.3685 588.886 27.7214 584.557 28.6537C577.317 30.2519 569.928 31.4061 563.36 34.4693C560.374 31.0954 555.374 37.1773 553.209 33.5814C550.149 28.5204 545.223 32.294 543.88 33.0931C541.043 34.7801 538.207 35.668 534.848 36.1563C533.58 36.3339 531.341 36.9111 531.191 35.9344C530.445 31.051 526.788 33.7146 525.593 35.0465C522.757 38.1985 519.548 37.1329 515.741 36.8665C511.711 36.6002 512.831 36.1563 513.726 33.9366C514.547 32.0277 511.935 30.5625 508.502 30.7845C504.098 31.0509 499.918 32.2939 494.097 36.0675C493.5 36.4226 493.425 36.7778 492.604 36.6002C488.051 35.6679 484.543 35.9786 484.319 40.4625C484.319 40.8176 483.498 41.3949 482.976 41.4393C475.96 42.194 469.541 45.9231 462.973 45.6124C456.33 45.2572 449.986 46.1006 444.015 46.8997C436.477 47.8764 428.342 46.6777 421.176 49.6521C415.579 52.005 408.189 50.5844 403.114 54.3135C402.069 55.0682 400.726 54.8465 399.308 54.8465C392.964 54.9353 386.769 55.4234 380.872 57.9539C377.215 59.5077 372.513 60.4844 368.035 58.8862C366.318 58.2647 364.527 59.2858 363.034 58.9307C357.81 57.6876 358.257 61.328 357.959 62.8374C357.436 65.3235 360.646 64.0803 362.362 64.3022C363.333 64.4354 364.228 64.6575 365.796 65.0127C362.362 68.6086 356.989 67.4543 353.033 68.8306C349.077 69.1413 345.047 69.1858 341.166 69.8074C337.732 70.3401 337.508 68.2091 336.165 67.0105L336.389 67.0991C335.12 71.9825 329.373 72.0714 324.745 73.0036C319.222 74.1135 313.251 74.7351 307.877 74.7795C299.294 74.8683 293.248 79.1302 285.561 80.6396C290.636 80.6396 295.935 81.3497 300.712 80.4174C304.519 79.6627 307.28 78.8637 310.937 80.7727C313.475 82.1045 313.923 78.3754 316.461 78.331C317.282 77.1324 316.983 75.179 319.894 75.4897C320.491 75.5341 321.461 76.0226 321.387 76.1557C320.939 77.9759 319.148 78.2865 317.132 78.2421C316.834 78.2421 316.535 78.1535 316.162 78.1091C322.805 80.5952 329.746 79.8403 335.269 77.1323C339.523 75.0457 343.628 74.2024 348.256 73.6697C357.959 72.5154 367.512 70.6063 377.812 71.3166C371.692 78.2866 360.646 76.1556 352.361 79.3964C357.586 82.3709 362.885 75.5342 367.811 80.8171C363.482 84.2355 357.436 84.8125 351.913 86.0112C341.539 88.2309 330.343 88.2311 320.939 92.8481C318.7 93.9579 317.058 92.7149 315.192 92.5817C309.594 92.271 305.19 93.647 302.653 97.6425L302.504 97.465C310.042 96.222 317.655 95.1563 325.193 94.2685C336.538 92.9366 347.286 88.9855 358.481 88.7192C364.602 88.586 368.856 85.523 374.528 85.6562C376.096 85.6562 377.812 84.5019 378.335 86.6772C378.708 88.0978 378.484 88.5862 376.319 89.2521C374.08 89.9181 372.364 91.738 369.677 92.3595C353.107 96.4438 336.911 101.238 320.043 104.568C311.609 106.211 302.653 105.278 294.592 108.342C286.905 111.272 278.246 111.627 269.962 112.959C254.587 115.4 238.987 117.354 224.06 120.95C210.178 124.279 196.146 126.854 181.89 129.074C176.367 129.962 171.441 132.758 165.246 133.469C167.411 136.266 169.65 136.31 171.516 135.733C188.831 130.494 207.64 129.962 225.403 126.321C229.434 125.478 232.569 126.677 235.554 130.006C237.719 132.448 240.779 133.957 240.853 137.464C240.853 139.418 244.809 138.929 246.675 140.039C247.869 140.75 248.541 141.549 248.392 142.658C248.243 143.857 246.899 144.39 245.556 144.567C241.227 145.1 236.823 145.766 232.419 145.988C229.732 146.121 227.045 145.988 224.881 147.32C225.254 149.806 227.419 149.806 229.434 149.584C243.242 148.163 257.199 147.498 271.007 146.388C275.784 145.988 278.694 149.184 283.695 148.119C276.604 149.939 274.216 155.355 268.917 157.53C261.155 160.682 252.721 164.012 243.988 164.145C228.687 164.367 215.477 170.938 200.4 171.16C199.579 171.16 198.833 172.003 197.489 172.802C207.043 174.134 216.074 170.849 224.956 173.024C225.478 173.158 226.448 172.891 226.822 172.536C233.39 166.631 243.988 168.274 251.9 164.989C254.811 163.79 257.124 164.678 260.259 166.587C251.825 176.443 237.196 177.996 224.135 182.125C225.851 183.857 227.717 185.144 228.613 186.742C231.673 192.336 232.793 193.09 239.734 191.936C243.391 191.315 247.048 190.516 250.482 189.45C254.736 188.163 258.99 187.941 263.394 188.252C265.334 188.385 266.23 188.074 270.335 185.987C273.544 184.345 278.918 185.322 280.71 188.03C281.68 189.495 282.351 191.137 285.038 190.249C288.173 189.228 288.099 187.808 285.486 186.254C284.665 185.765 284.292 185.011 285.486 184.478C286.009 184.256 286.83 184.167 287.427 184.3C289.815 184.833 291.607 185.588 291.98 187.852C292.353 189.983 294.219 188.962 295.712 188.207C293.995 183.102 294.517 182.702 302.429 183.901C299.742 185.41 295.189 185.1 295.488 188.429C297.204 188.118 298.772 188.252 300.488 188.695C303.847 189.628 306.086 187.941 308.624 186.52C310.49 185.455 304.743 183.324 309.893 182.88C313.475 182.569 312.281 184.744 313.475 185.632C316.461 187.808 320.342 188.207 323.999 187.541C329.223 186.609 333.776 187.808 338.553 188.962C346.092 190.738 353.854 188.74 361.541 189.406C363.482 189.583 365.796 189.095 365.796 191.448C373.707 186.476 382.888 187.319 392.068 187.941C383.559 189.85 375.275 193.002 365.945 191.27C363.482 191.892 361.765 194.511 358.631 193.401C351.465 190.915 344.449 194.777 337.359 193.401C335.941 193.135 334.597 193.712 333.926 194.689C332.881 196.243 331.612 197.042 330.866 194.822C329 189.406 322.581 191.182 319.969 192.203C315.341 194.023 310.938 194.023 306.385 193.934C304.444 193.934 303.026 193.668 302.653 195.222C302.354 196.376 303.698 197.042 305.041 197.397C307.728 198.152 310.266 198.152 310.937 201.525C311.385 203.834 317.207 203.834 320.939 203.79C331.537 203.745 341.986 204.589 352.958 205.787C351.241 208.895 346.091 207.474 344.524 210.626C351.913 211.647 359.228 212.18 366.243 210.449C374.752 208.318 383.261 207.43 392.142 206.897C416.549 205.477 441.03 204.278 465.511 203.878C467.601 203.878 470.511 203.079 471.929 205.299C474.019 204.322 476.781 207.696 479.02 204.411C479.99 202.991 483.722 204.189 485.737 204.722C488.275 205.388 489.768 206.631 492.529 204.589C495.589 202.369 499.545 200.993 502.083 205.565C502.904 207.075 503.575 205.832 504.77 205.343C513.129 201.747 521.862 200.638 531.191 203.701C532.983 204.278 535.893 204.278 537.461 203.568C545.745 199.883 548.134 199.75 557.986 201.215C560.374 201.57 563.434 202.68 566.196 201.481C569.48 200.016 573.884 203.346 577.317 199.661C578.436 198.462 582.915 202.946 587.094 201.037C588.662 200.327 589.334 201.659 589.856 202.546C590.602 203.967 589.408 204.322 587.915 204.455C578.66 205.166 569.405 206.143 560.15 206.542C551.045 206.942 542.014 209.339 532.833 207.785C528.654 207.075 525.967 209.871 521.489 209.694C508.726 209.161 495.664 209.072 483.125 210.582C475.885 211.425 468.422 210.582 461.48 212.491C460.883 212.668 459.913 212.846 459.54 212.624C451.33 207.696 442.746 211.781 434.387 212.002C426.401 212.224 418.415 211.914 410.429 213.246C406.174 213.956 401.472 212.669 397.069 212.979C393.411 213.246 387.515 212.402 387.067 216.043C386.694 219.061 392.889 220.082 395.8 220.038C406.398 219.905 416.847 221.991 427.446 221.503C431.252 221.325 434.91 221.237 437.298 218.484C442.448 222.346 442.597 216.531 445.807 216.043C449.314 217.019 445.284 220.038 447.822 221.148C450.21 222.213 453.121 222.213 455.808 221.814C461.331 221.015 468.198 224.699 472.452 219.194C472.527 219.106 473.945 219.328 474.019 219.55C476.109 224.966 481.632 222.346 485.961 222.524C506.934 223.367 527.833 222.213 548.731 221.414C573.287 220.482 597.842 218.351 622.398 216.664C626.503 216.398 635.011 208.629 634.34 205.743C633.892 203.701 632.623 202.191 629.04 201.925C620.905 201.303 613.441 203.39 605.828 204.811C604.783 204.988 602.918 206.631 602.918 205.965C602.694 201.57 595.678 205.21 595.006 201.881C594.782 200.904 595.081 199.839 595.23 198.818C595.379 198.018 596.275 197.13 596.946 198.063C599.633 201.747 603.291 199.217 606.5 199.128C607.769 199.128 607.843 199.084 611.277 196.42C611.575 196.198 611.949 195.488 612.471 195.976C616.352 199.839 621.95 197.841 625.234 196.775C629.488 195.443 632.474 195.976 635.758 197.13C639.564 198.507 643.893 196.598 647.998 198.818C645.61 202.591 636.131 201.392 636.579 207.341C638.668 208.185 640.609 204.988 642.774 207.252C641.953 209.294 639.713 210.138 637.4 211.292C633.668 213.112 632.1 218.795 633.966 221.769C635.16 223.723 637.847 223.723 640.087 224.033C650.61 225.499 661.209 225.41 671.733 224.566C693.527 222.79 715.47 221.991 736.518 216.842C744.056 215.021 751.594 213.867 759.58 214.178C763.462 214.355 766.895 213.911 766.298 209.472C765.925 206.586 768.014 204.1 773.015 204.145C774.956 204.145 777.493 203.967 778.687 203.035C780.479 201.703 784.061 202.635 784.509 200.549C785.181 197.397 781.3 199.039 779.658 198.24C776.971 196.909 777.344 193.268 780.628 192.736C789.51 191.226 795.481 186.298 802.646 182.747C807.348 180.394 812.797 180.438 817.947 179.506C821.156 178.884 824.365 178.662 828.172 176.798C818.917 175.377 810.408 179.595 802.273 175.51C803.019 172.358 806.975 171.559 810.931 171.115C814.961 170.672 818.842 170.227 822.649 169.073C824.291 168.585 826.157 168.363 825.709 166.632C825.336 165.122 823.544 164.767 821.828 164.589C820.932 164.501 819.812 164.767 819.29 163.923C819.439 162.947 820.484 162.725 821.38 162.503C823.022 162.103 824.962 161.793 823.918 159.972C823.32 158.863 821.902 158.818 820.484 158.951C815.409 159.484 810.259 160.327 805.184 158.951C803.989 158.64 802.347 158.818 801.9 157.486C803.84 154.246 809.886 157.22 811.976 153.535C806.975 150.96 801.004 153.624 795.929 151.893C801.228 146.92 804.512 141.993 801.75 135.6C799.735 130.85 798.84 126.055 803.467 121.482C805.258 119.751 805.855 117.664 809.438 117.087C811.528 116.732 813.244 114.956 815.26 114.024C821.454 111.094 822.275 106.655 821.081 101.816C820.335 98.5748 813.767 95.5116 807.423 95.6891C803.318 95.7779 800.705 94.8459 797.944 92.5817C796.6 91.4719 795.705 90.8947 796.899 89.7849C799.511 87.2988 798.168 84.9014 796.899 82.4597C796.526 81.7494 795.406 80.8172 795.705 80.3733C799.063 75.5343 794.884 71.0503 794.884 66.3445C794.884 65.5454 794.51 64.3467 794.958 64.0803C801.004 60.7951 800.556 56.0007 801.601 51.1617C802.124 48.7644 801.9 47.3438 800.332 45.8787C796.227 42.1052 791.45 38.7757 788.465 34.2919C785.33 29.6748 781.897 25.5016 783.837 19.6859C784.659 17.2442 782.792 13.7371 776.747 13.9147C775.03 13.9591 774.209 13.2932 772.119 14.4474C768.537 16.4452 771.298 11.5618 768.91 11.9613C767.044 12.2721 764.432 14.3588 763.835 14.048C757.341 10.2745 746.892 15.7348 742.19 7.74383C741.444 9.91915 741.07 11.1178 740.697 12.2277C740.026 12.6716 739.652 12.4054 738.906 12.0502C735.473 10.3188 731.368 9.78609 727.412 9.25335C725.173 8.94259 725.322 7.4331 723.979 6.94476C722.859 6.54521 721.441 6.54519 720.172 6.36761C720.919 5.39093 722.038 4.45877 722.337 3.4377C722.859 2.01708 721.217 0.95147 720.023 0.24116C718.456 -0.646729 718.306 1.17366 717.261 1.57321C714.798 2.54988 711.962 4.28124 709.723 3.21578C701.886 -0.468957 699.05 6.14571 698.975 7.8327C698.975 11.5618 693.9 12.583 693.601 16.2233C693.452 18.1767 685.615 18.9757 682.256 17.2887C678.898 15.6017 676.51 16.1345 674.718 17.5995C670.613 21.0623 666.657 20.3075 663.523 17.5106C659.716 14.0923 656.432 17.0224 655.91 18.443C654.939 21.2399 652.999 21.3287 650.834 20.3964C647.625 19.0202 642.102 21.8613 640.908 17.1998L641.206 16.9779L641.43 17.0668ZM552.463 42.8155C553.657 40.9065 555.15 39.7522 557.762 41.6168C558.359 42.0163 558.732 43.3482 558.434 43.5701C556.418 44.9464 554.777 43.7479 553.135 42.9044C552.836 42.7712 552.537 42.7268 552.164 42.5936C551.492 43.3483 551.866 44.68 550.149 44.7244C549.701 44.7244 548.88 44.1473 548.88 43.8809C549.029 41.6612 551.269 43.2594 552.463 42.8155ZM381.171 76.8659C382.514 76.9103 384.306 75.2235 385.127 77.2656C385.425 78.0647 384.679 78.8638 383.634 78.9082C381.544 78.997 380.574 78.2422 381.469 76.5996C379.156 78.1534 378.111 81.3943 373.633 80.018C373.259 79.8849 372.812 78.997 373.035 78.6863C374.677 76.5109 376.991 75.3565 380.425 76.2443C380.723 76.3331 380.947 76.5997 381.096 76.7773L381.171 76.8659ZM296.607 142.658C297.503 145.1 302.13 143.502 302.354 146.166C302.503 148.252 299.593 147.542 298.473 147.498C294.219 147.231 296.159 144.834 296.607 142.658ZM621.726 22.7492C620.382 22.7492 618.815 22.9268 618.741 21.4174C618.741 20.5739 619.263 19.7748 620.383 19.7748C622.099 19.7748 623.667 20.4851 624.114 21.7282C624.338 22.3497 622.845 22.7935 621.726 22.7492ZM398.114 75.9338C396.546 76.3778 395.874 75.845 395.949 75.0459C396.024 73.936 397.367 73.4031 398.561 73.2256C399.233 73.1368 400.726 73.5809 400.875 73.936C401.398 75.7562 399.009 75.4011 398.188 75.9338L398.114 75.9338ZM361.467 140.971C360.497 141.282 359.451 141.327 359.004 140.439C358.705 139.817 358.481 138.841 359.75 138.796C360.571 138.796 361.467 139.418 362.213 139.862C362.288 139.862 361.691 140.616 361.392 141.016L361.467 140.971Z" fill="#FDD551"/>
<path d="M302.877 97.6425C299.891 95.112 296.309 95.5561 292.427 96.1332C274.141 99.0633 255.781 101.771 237.495 104.79C224.657 106.921 211.819 109.363 199.056 111.716C197.788 111.938 196.594 112.515 195.922 114.868C204.356 113.891 212.491 114.291 220.328 112.204C226.075 110.65 231.822 109.274 238.092 109.851C239.435 109.984 241.077 110.517 242.047 110.162C258.244 103.547 276.53 103.148 293.92 100.262C297.204 99.7292 300.488 99.6403 302.727 97.465L302.877 97.6869L302.877 97.6425Z" fill="#FDD551"/>
<path d="M151.214 104.479C143.004 102.615 135.839 105.278 128.674 106.965C122.628 108.386 117.03 111.005 110.611 108.43C110.089 108.208 109.641 107.631 109.492 108.253C108.372 114.379 99.5652 111.094 96.2065 114.557C103.372 116.288 106.283 115.711 124.195 111.316C133.226 109.096 142.855 108.208 151.214 104.524L151.214 104.479Z" fill="#FDD551"/>
<path d="M192.488 113.536C184.352 114.912 176.291 116.244 168.231 117.665C167.484 117.798 166.738 118.73 166.589 119.352C166.365 120.151 167.559 120.994 168.38 120.728C176.217 117.931 186.069 120.284 193.01 115.356C192.861 114.734 192.712 114.113 192.562 113.492L192.488 113.536Z" fill="#FDD551"/>
<path d="M150.319 122.903C137.78 121.971 129.196 126.721 119.643 128.497C129.868 128.763 139.198 126.321 150.319 122.903Z" fill="#FDD551"/>
<path d="M95.6843 147.897C91.6539 148.119 87.5489 147.986 83.6678 148.652C81.5033 149.051 79.4134 150.072 77.025 150.206C75.2337 150.294 73.5172 150.605 73.8904 152.336C74.3382 154.379 76.204 153.535 77.6967 153.18C83.7423 151.804 89.7881 150.428 95.8337 149.051L95.6098 147.853L95.6843 147.897Z" fill="#FDD551"/>
<path d="M256.9 91.4271C259.96 90.0952 259.811 87.5204 261.901 86.1886C263.021 85.4783 265.782 85.7 264.588 83.7467C263.618 82.1485 261.379 81.4828 259.438 82.3263C256.453 83.6137 251.153 84.5014 256.005 88.5413C256.527 88.9853 254.81 90.3616 256.826 91.4271L256.9 91.4271Z" fill="#FDD551"/>
<path d="M249.287 200.593C246.824 199.661 245.033 201.614 242.719 201.481C240.48 201.392 238.017 201.836 238.539 203.701C239.286 206.364 241.376 204.589 242.943 203.878C245.555 202.68 248.167 203.213 250.556 204.1C253.541 205.166 254.362 203.568 254.661 202.192C255.183 200.238 252.944 200.549 251.377 200.505C250.705 200.505 250.034 200.593 249.287 200.638L249.287 200.593Z" fill="#FDD551"/>
<path d="M193.234 95.867C187.413 94.2688 183.382 99.7291 177.859 97.3318C177.635 97.7757 177.262 98.2198 177.262 98.6194C177.262 99.4629 177.934 99.9067 179.053 100.129C184.8 101.239 189.726 100.617 193.234 95.8225L193.234 95.867Z" fill="#FDD551"/>
<path d="M125.464 142.126C131.137 143.324 135.018 140.439 140.018 141.282C141.586 141.549 143.452 140.528 142.929 138.974C142.407 137.42 140.019 137.331 138.75 137.686C134.197 138.974 129.868 140.616 125.464 142.126Z" fill="#FDD551"/>
<path d="M62.7695 154.29C62.0231 153.535 61.65 152.07 60.0079 152.647C55.0819 154.29 50.3799 156.377 44.7822 156.377C43.7372 156.377 42.9162 157.131 43.0654 157.975C43.2147 158.818 44.4836 159.44 45.23 159.085C50.5292 156.199 58.1421 157.93 62.9189 154.068L62.7695 154.29Z" fill="#FDD551"/>
<path d="M102.999 168.896C107.477 166.188 113.896 168.94 118.897 164.856C112.702 165.299 106.88 164.234 102.999 168.896Z" fill="#FDD551"/>
<path d="M213.61 93.5141C208.982 90.4065 205.549 91.5608 202.191 93.3366C201.892 93.5142 201.892 94.5796 202.041 94.6684C205.848 95.8227 209.43 95.5118 213.535 93.5141L213.61 93.5141Z" fill="#FDD551"/>
<path d="M836.53 159.573C834.963 161.97 834.44 164.723 830.335 165.611C835.958 165.995 838.023 163.983 836.53 159.573Z" fill="#FDD551"/>
<path d="M108.149 144.567C108.97 145.189 109.194 145.544 109.418 145.544C112.254 145.411 115.538 146.787 117.479 144.079C117.702 143.768 117.255 142.836 116.881 142.747C113.747 141.904 111.06 142.481 108.224 144.612L108.149 144.567Z" fill="#FDD551"/>
<path d="M-1.20922e-07 165.877C3.73185 166.898 5.89623 166.987 7.83679 165.921C8.73244 165.433 10.6731 165.389 9.77743 163.391C6.56804 162.503 4.10503 163.835 -1.18991e-07 165.833L-1.20922e-07 165.877Z" fill="#FDD551"/>
<path d="M91.9528 133.469C88.0716 133.469 84.5637 134.579 81.6528 137.065C85.2354 136.399 88.8927 135.733 92.4753 135.067C92.326 134.534 92.102 134.002 91.9528 133.469Z" fill="#FDD551"/>
<path d="M731.516 2.3725C730.546 0.46354 727.934 0.685426 725.918 0.0639038C725.62 0.72982 725.023 1.39579 725.023 2.06171C725.023 5.08052 728.158 3.70427 730.023 3.97063C730.994 4.10382 731.74 3.39357 731.516 2.3725Z" fill="#FDD551"/>
<path d="M336.314 67.0109C339.225 66.5225 342.136 66.0784 344.972 65.4569C346.017 65.2349 346.166 64.2582 345.793 63.5035C345.345 62.6156 344.3 62.8822 343.255 62.8822C339.374 62.8822 339.523 66.3448 336.612 67.0995L336.314 67.0109Z" fill="#FDD551"/>
<path d="M289.144 64.9237C287.353 64.2134 285.785 61.9493 283.472 64.391C282.576 65.3677 282.725 66.3444 284.218 66.9215C287.278 68.1202 288.398 66.6552 289.069 64.7462L289.069 64.9237L289.144 64.9237Z" fill="#FDD551"/>
<path d="M62.8435 154.068C66.3514 155.577 69.2622 154.734 71.6506 152.558C71.8745 152.336 71.6507 151.271 71.2775 151.182C67.1725 150.072 65.0825 152.381 62.7688 154.245L62.9182 154.068L62.8435 154.068Z" fill="#FDD551"/>
<path d="M160.992 135.422C158.305 134.934 156.065 134.357 153.752 136.754C156.737 137.464 158.976 137.731 160.992 135.422Z" fill="#FDD551"/>
<path d="M353.181 68.7864C352.509 66.8331 353.554 65.3237 355.495 64.0806C356.39 63.5035 356.241 62.7044 355.569 62.0828C354.748 61.2837 353.704 61.8166 352.808 61.9054C351.241 62.0829 349.972 62.8821 350.569 63.9032C351.539 65.5458 352.883 67.0107 353.181 68.8309L353.181 68.7864Z" fill="#FDD551"/>
<path d="M231.823 77.3096C232.42 75.1787 234.062 73.1365 230.479 72.0267C229.434 71.7159 228.987 72.648 228.539 73.2696C226.3 76.244 230.031 76.111 231.897 77.3096L231.823 77.3096Z" fill="#FDD551"/>
<path d="M298.995 63.1922C299.294 64.6572 300.861 64.302 301.981 64.302C303.623 64.302 305.414 64.2577 305.115 62.4375C304.892 61.3277 303.996 60.6175 302.429 60.9283C300.861 61.239 299.443 61.8606 298.995 63.148L298.995 63.1922Z" fill="#FDD551"/>
<path d="M255.109 95.0235C256.9 95.0235 257.945 95.201 258.766 95.0235C260.184 94.6683 262.349 95.8224 263.021 94.3574C263.394 93.5139 263.543 94.2687 262.349 94.18C260.483 94.0024 258.393 94.0912 256.602 94.5352C255.482 94.8459 257.348 94.8459 255.109 95.0679L255.109 95.0235Z" fill="#FDD551"/>
<path d="M309.22 69.6298C310.638 69.6742 311.907 69.8518 311.907 68.7863C311.907 67.632 310.713 67.0551 309.369 66.7443C308.175 66.5224 307.354 66.9219 307.279 67.8542C307.13 69.1416 308.175 69.6742 309.295 69.6298L309.22 69.6298Z" fill="#FDD551"/>
<path d="M203.312 82.5038C205.402 82.5038 206.073 81.0388 206.596 79.9733C207.342 78.2863 205.178 78.8191 204.133 78.6416C202.64 78.4196 201.446 78.7304 201.371 80.1066C201.371 81.1277 201.446 82.193 203.312 82.4594L203.312 82.5038Z" fill="#FDD551"/>
<path d="M289.069 64.7463C289.591 65.1015 290.114 65.4121 290.562 65.7673C292.204 67.0547 293.846 67.321 295.637 65.9892C296.682 65.1901 296.98 64.1692 295.786 63.4145C293.92 62.2603 292.129 62.6597 290.711 64.0803C290.338 64.4798 289.741 64.7463 289.218 65.0127L289.069 64.7907L289.069 64.7463Z" fill="#FDD551"/>
<path d="M232.122 159.706C232.122 157.486 230.405 157.797 228.763 158.107C227.942 158.285 226.524 158.463 227.42 159.351C228.39 160.239 229.957 160.816 231.226 161.526C231.525 160.816 231.823 160.15 232.047 159.706L232.122 159.706Z" fill="#FDD551"/>
<path d="M115.314 104.213C118.448 105.145 120.538 103.991 124.569 103.058C119.568 101.283 117.627 103.724 115.314 104.213Z" fill="#FDD551"/>
<path d="M157.335 122.06C158.603 121.616 160.917 122.237 160.842 120.328C160.842 120.062 159.2 119.707 158.23 119.574C156.737 119.352 155.469 119.929 155.245 121.039C155.021 122.015 156.364 121.926 157.335 122.06Z" fill="#FDD551"/>
<path d="M88.8176 169.562C92.1763 172.758 94.4153 170.627 98.0725 168.763C93.7436 167.653 91.2059 168.629 88.6682 169.784L88.8176 169.606L88.8176 169.562Z" fill="#FDD551"/>
<path d="M233.091 138.263C233.091 138.929 233.538 139.595 234.658 139.64C235.777 139.64 236.449 139.018 236.3 138.219C236.225 137.819 235.628 137.242 235.106 137.109C233.986 136.754 233.24 137.242 233.091 138.308L233.091 138.263Z" fill="#FDD551"/>
<path d="M277.65 82.4149C276.605 80.8611 274.963 80.1953 272.798 80.5504C272.425 80.5948 271.828 81.4828 271.977 81.7492C273.395 84.0133 275.485 83.3028 277.65 82.4149Z" fill="#FDD551"/>
<path d="M246.003 73.2253C246.974 71.1832 247.123 69.7626 245.033 68.7859C244.66 68.6083 243.615 68.5641 243.54 68.6973C242.271 70.6062 243.391 71.9823 246.003 73.2253Z" fill="#FDD551"/>
<path d="M142.706 116.421C143.676 116.111 144.646 115.889 145.392 115.445C145.915 115.134 145.393 114.779 144.497 114.69C143.527 114.601 142.482 114.379 142.034 115.312C141.735 115.889 142.034 116.288 142.706 116.377L142.706 116.421Z" fill="#FDD551"/>
<path d="M74.7858 171.826C73.517 172.003 72.0989 171.959 71.5018 172.98C71.4271 173.113 72.7706 173.956 73.5916 174.178C74.9351 174.533 76.3532 174.179 76.6517 173.024C76.9503 172.092 75.8307 171.87 74.7858 171.826Z" fill="#FDD551"/>
<path d="M88.7426 169.739C85.5332 168.407 83.3687 170.006 80.0847 171.115C84.5629 173.069 86.7275 171.515 88.8173 169.561L88.7426 169.739Z" fill="#FDD551"/>
<path d="M69.5613 132.581C70.6063 132.403 71.3527 131.96 71.2781 131.116C71.2781 130.894 70.2332 130.628 69.7108 130.628C68.5912 130.628 67.9195 131.205 68.0687 132.048C68.0687 132.27 69.0389 132.403 69.5613 132.625L69.5613 132.581Z" fill="#FDD551"/>
<path d="M641.132 17.2442C640.534 16.667 640.012 15.9566 639.266 15.4683C638.519 14.9355 637.325 14.8468 636.728 15.5571C635.758 16.8446 636.952 17.3772 638.445 17.4216C639.415 17.4216 640.385 17.1554 641.355 17.0222L641.132 17.1997L641.132 17.2442Z" fill="#FDD551"/>
<path d="M32.6907 159.528L40.2291 159.528C37.6914 158.67 35.2782 158.729 32.9893 159.706L32.7654 159.528L32.6907 159.528Z" fill="#FDD551"/>
<path d="M32.9141 159.75C32.9141 159.75 32.2425 159.662 31.8693 159.75C30.3766 159.884 28.3614 159.085 27.6897 160.816C27.6897 160.905 28.7346 161.304 29.3317 161.526C31.8694 162.325 31.9439 160.638 32.6902 159.573L32.9141 159.75Z" fill="#FDD551"/>
<path d="M806.377 88.2757C804.884 89.6963 805.258 90.9837 805.929 92.0935C806.228 92.6707 807.124 92.4487 807.422 91.7828C808.094 90.4509 807.795 89.3412 806.377 88.2757Z" fill="#FDD551"/>
</svg>
