<svg width="24" height="25" viewBox="0 0 24 25" fill="none" xmlns="http://www.w3.org/2000/svg">
<path d="M20.364 13.207C20.5514 13.0194 20.6567 12.7651 20.6567 12.5C20.6567 12.2348 20.5514 11.9805 20.364 11.793L14.707 6.13598C14.6147 6.04047 14.5044 5.96428 14.3824 5.91188C14.2604 5.85947 14.1291 5.83188 13.9964 5.83073C13.8636 5.82957 13.7319 5.85487 13.609 5.90515C13.4861 5.95544 13.3744 6.02969 13.2806 6.12358C13.1867 6.21747 13.1124 6.32913 13.0621 6.45202C13.0118 6.57492 12.9865 6.7066 12.9877 6.83938C12.9889 6.97216 13.0164 7.10338 13.0688 7.22538C13.1213 7.34738 13.1974 7.45773 13.293 7.54998L17.243 11.5L3.99995 11.5C3.73474 11.5 3.48038 11.6053 3.29284 11.7929C3.10531 11.9804 2.99995 12.2348 2.99995 12.5C2.99995 12.7652 3.10531 13.0195 3.29284 13.2071C3.48038 13.3946 3.73474 13.5 3.99995 13.5L17.243 13.5L13.293 17.45C13.1108 17.6386 13.01 17.8912 13.0123 18.1534C13.0146 18.4156 13.1197 18.6664 13.3051 18.8518C13.4905 19.0372 13.7414 19.1424 14.0036 19.1447C14.2657 19.1469 14.5183 19.0461 14.707 18.864L20.364 13.207Z" fill="#FCFCFC"/>
</svg>
